<svg width="255" height="120" viewBox="0 0 255 120" fill="none" xmlns="http://www.w3.org/2000/svg">
<rect width="120" height="120" fill="black"/>
<path d="M36.25 67.0909H48.0455L56.1591 86.8636H56.5682L64.6818 67.0909H76.4773V102H67.2045V81.8182H66.9318L59.1591 101.727H53.5682L45.7955 81.6818H45.5227V102H36.25V67.0909ZM93.6506 102.477C90.8551 102.477 88.446 101.943 86.4233 100.875C84.4119 99.7955 82.8608 98.25 81.7699 96.2386C80.6903 94.2159 80.1506 91.7955 80.1506 88.9773C80.1506 86.2727 80.696 83.9091 81.7869 81.8864C82.8778 79.8636 84.4176 78.2898 86.4062 77.1648C88.3949 76.0398 90.7415 75.4773 93.446 75.4773C95.4233 75.4773 97.2131 75.7841 98.8153 76.3977C100.418 77.0114 101.787 77.9034 102.923 79.0739C104.06 80.233 104.935 81.642 105.548 83.3011C106.162 84.9602 106.469 86.8295 106.469 88.9091V91.0909H83.0824V85.9091H97.8097C97.7983 85.1591 97.6051 84.5 97.2301 83.9318C96.8665 83.3523 96.3722 82.9034 95.7472 82.5852C95.1335 82.2557 94.4347 82.0909 93.6506 82.0909C92.8892 82.0909 92.1903 82.2557 91.554 82.5852C90.9176 82.9034 90.4063 83.3466 90.0199 83.9148C89.6449 84.483 89.446 85.1477 89.4233 85.9091V91.5C89.4233 92.3409 89.5994 93.0909 89.9517 93.75C90.304 94.4091 90.8097 94.9261 91.4688 95.3011C92.1278 95.6761 92.9233 95.8636 93.8551 95.8636C94.5028 95.8636 95.0938 95.7727 95.6278 95.5909C96.1733 95.4091 96.6392 95.1477 97.0256 94.8068C97.4119 94.4545 97.696 94.0341 97.8778 93.5455H106.469C106.173 95.3636 105.474 96.9432 104.372 98.2841C103.27 99.6136 101.81 100.648 99.9915 101.386C98.1847 102.114 96.071 102.477 93.6506 102.477Z" fill="white"/>
<path d="M160.841 84.1818H151.227C151.159 83.3864 150.977 82.6648 150.682 82.017C150.398 81.3693 150 80.8125 149.489 80.3466C148.989 79.8693 148.381 79.5057 147.665 79.2557C146.949 78.9943 146.136 78.8636 145.227 78.8636C143.636 78.8636 142.29 79.25 141.188 80.0227C140.097 80.7955 139.267 81.9034 138.699 83.3466C138.142 84.7898 137.864 86.5227 137.864 88.5455C137.864 90.6818 138.148 92.4716 138.716 93.9148C139.295 95.3466 140.131 96.4261 141.222 97.1534C142.313 97.8693 143.625 98.2273 145.159 98.2273C146.034 98.2273 146.818 98.1193 147.511 97.9034C148.205 97.6761 148.807 97.3523 149.318 96.9318C149.83 96.5114 150.244 96.0057 150.562 95.4148C150.892 94.8125 151.114 94.1364 151.227 93.3864L160.841 93.4545C160.727 94.9318 160.313 96.4375 159.597 97.9716C158.881 99.4943 157.864 100.903 156.545 102.199C155.239 103.483 153.619 104.517 151.688 105.301C149.756 106.085 147.511 106.477 144.955 106.477C141.75 106.477 138.875 105.79 136.33 104.415C133.795 103.04 131.79 101.017 130.312 98.3466C128.847 95.6761 128.114 92.4091 128.114 88.5455C128.114 84.6591 128.864 81.3864 130.364 78.7273C131.864 76.0568 133.886 74.0398 136.432 72.6761C138.977 71.3011 141.818 70.6136 144.955 70.6136C147.159 70.6136 149.188 70.9148 151.04 71.517C152.892 72.1193 154.517 73 155.915 74.1591C157.313 75.3068 158.438 76.7216 159.29 78.4034C160.142 80.0852 160.659 82.0114 160.841 84.1818ZM174.686 71.0909L181.845 95.7045H182.118L189.277 71.0909H199.982L188.459 106H175.504L163.982 71.0909H174.686ZM203.953 106.545C202.635 106.545 201.504 106.085 200.561 105.165C199.629 104.233 199.169 103.102 199.18 101.773C199.169 100.477 199.629 99.3693 200.561 98.4489C201.504 97.5284 202.635 97.0682 203.953 97.0682C205.203 97.0682 206.305 97.5284 207.26 98.4489C208.226 99.3693 208.714 100.477 208.726 101.773C208.714 102.659 208.482 103.466 208.027 104.193C207.584 104.909 207.004 105.483 206.288 105.915C205.572 106.335 204.794 106.545 203.953 106.545ZM221.135 106.409C219.464 106.409 217.987 106.136 216.703 105.591C215.43 105.034 214.43 104.193 213.703 103.068C212.976 101.943 212.612 100.511 212.612 98.7727C212.612 97.3409 212.857 96.1193 213.345 95.108C213.834 94.0852 214.516 93.25 215.391 92.6023C216.266 91.9545 217.283 91.4602 218.442 91.1193C219.612 90.7784 220.874 90.5568 222.226 90.4545C223.692 90.3409 224.868 90.2045 225.754 90.0455C226.652 89.875 227.3 89.642 227.697 89.3466C228.095 89.0398 228.294 88.6364 228.294 88.1364V88.0682C228.294 87.3864 228.033 86.8636 227.51 86.5C226.987 86.1364 226.317 85.9545 225.499 85.9545C224.601 85.9545 223.868 86.1534 223.3 86.5511C222.743 86.9375 222.408 87.5341 222.294 88.3409H213.635C213.749 86.75 214.254 85.2841 215.152 83.9432C216.061 82.5909 217.385 81.5114 219.124 80.7045C220.862 79.8864 223.033 79.4773 225.635 79.4773C227.51 79.4773 229.192 79.6989 230.68 80.142C232.169 80.5739 233.436 81.1818 234.482 81.9659C235.527 82.7386 236.322 83.6477 236.868 84.6932C237.425 85.7273 237.703 86.8523 237.703 88.0682V106H228.908V102.318H228.703C228.18 103.295 227.544 104.085 226.794 104.688C226.055 105.29 225.209 105.727 224.254 106C223.311 106.273 222.271 106.409 221.135 106.409ZM224.203 100.477C224.919 100.477 225.589 100.33 226.214 100.034C226.851 99.7386 227.368 99.3125 227.766 98.7557C228.163 98.1989 228.362 97.5227 228.362 96.7273V94.5455C228.112 94.6477 227.845 94.7443 227.561 94.8352C227.288 94.9261 226.993 95.0114 226.675 95.0909C226.368 95.1705 226.038 95.2443 225.686 95.3125C225.345 95.3807 224.987 95.4432 224.612 95.5C223.885 95.6136 223.288 95.8011 222.822 96.0625C222.368 96.3125 222.027 96.625 221.8 97C221.584 97.3636 221.476 97.7727 221.476 98.2273C221.476 98.9545 221.732 99.5114 222.243 99.8977C222.754 100.284 223.408 100.477 224.203 100.477ZM242.199 106V79.8182H251.608V106H242.199ZM246.903 77.0909C245.631 77.0909 244.54 76.6705 243.631 75.8295C242.722 74.9886 242.267 73.9773 242.267 72.7955C242.267 71.6136 242.722 70.6023 243.631 69.7614C244.54 68.9205 245.631 68.5 246.903 68.5C248.188 68.5 249.278 68.9205 250.176 69.7614C251.085 70.6023 251.54 71.6136 251.54 72.7955C251.54 73.9773 251.085 74.9886 250.176 75.8295C249.278 76.6705 248.188 77.0909 246.903 77.0909Z" fill="black"/>
</svg>
